# xmcd
#
# Track frame offsets: 
#        150
#        3031
#        12686
#        30367
#        44846
#        69849
#        86942
#        101238
#        126538
#        147434
#        167574
#        182381
#        196549
#        212189
#        233193
#        253243
#        269928
#
# Disc length: 3839 seconds
#
# Revision: 0
# Processed by: cddbd v1.5.2PL0 Copyright (c) Steve Scherf et al.
# Submitted via: ExactAudioCopy v0.99pb5
#
DISCID=fa0efd11
DTITLE=Austin Lounge Lizards - Austin Lounge Lizards 07_15_1999
DYEAR=1999
DGENRE=Bluegrass
TTITLE0=Intro
TTITLE1=brain damage
TTITLE2=put the oak ridge boys in the slammer
TTITLE3=he's just a friend
TTITLE4=hillbillies in a haunted house
TTITLE5=last words
TTITLE6=teenage immigrant welfare mothers on drugs
TTITLE7=old blevins
TTITLE8=stupid texas song
TTITLE9=the dogs, they really miss you
TTITLE10=jesus loves me (but he cant stand you)
TTITLE11=waiting on a call from don
TTITLE12=stoney creek
TTITLE13=the grunge song
TTITLE14=hey little minivan
TTITLE15=on the other shore
TTITLE16=old and fat and drunk
EXTD=Winterhawk Bluegrass Festival, Ancramdale, NY
EXTT0=
EXTT1=
EXTT2=
EXTT3=
EXTT4=
EXTT5=
EXTT6=
EXTT7=
EXTT8=
EXTT9=
EXTT10=
EXTT11=
EXTT12=
EXTT13=
EXTT14=
EXTT15=
EXTT16=
PLAYORDER=
